# xmcd
#
# Track frame offsets:
#	150
#	17025
#	32700
#	49350
#	63900
#	79650
#	93375
#	113025
#	125100
#	141975
#	152925
#	167850
#	184725
#	201075
#	216300
#	230550
#	243750
#	266625
#	286875
#	300075
#	315300
#
# Disc length: 4353 seconds
#
# Revision: 1
# Processed by: cddbd v1.5.2PL0 Copyright (c) Steve Scherf et al.
# Submitted via: EZCDAudioConverter 9.0.3.1
#
DISCID=2710ff15
DTITLE=Věra Martinová - Jako dřív (Zlatá kolekce)
DYEAR=2016
DGENRE=Country
TTITLE0=Dál jen vejdi
TTITLE1=Z nudy sudy válet
TTITLE2=Pár havraních copánků
TTITLE3=Brzy bude ráno
TTITLE4=Hvězda v tísni
TTITLE5=Srdcem jsi zůstal u koní
TTITLE6=Hymna tuláků
TTITLE7=Ja mám káru
TTITLE8=Jednou jsi cowboy
TTITLE9=Babiččiny džíny
TTITLE10=Divoká
TTITLE11=Dám si jedno blues
TTITLE12=Já se stávám vodou
TTITLE13=Nejsme si cizí
TTITLE14=Čekání
TTITLE15=Ja vím, že už mě nemiluješ
TTITLE16=Nika
TTITLE17=Z knihy vázané ovčí kůží
TTITLE18=Citadela citů
TTITLE19=Noční blues
TTITLE20=Pod sluneční bránou
EXTD=
EXTT0=
EXTT1=
EXTT2=
EXTT3=
EXTT4=
EXTT5=
EXTT6=
EXTT7=
EXTT8=
EXTT9=
EXTT10=
EXTT11=
EXTT12=
EXTT13=
EXTT14=
EXTT15=
EXTT16=
EXTT17=
EXTT18=
EXTT19=
EXTT20=
PLAYORDER=
